<svg width="16" height="16" viewBox="0 0 16 16" fill="none" xmlns="http://www.w3.org/2000/svg">
<path d="M11.3334 9.33338C11.3334 9.12475 11.0861 9.02604 10.8998 9.12003C10.6294 9.25651 10.3237 9.33338 10 9.33338C8.89547 9.33338 8.00004 8.43795 8.00004 7.33338C8.00004 7.00974 8.07691 6.70406 8.21339 6.4336C8.30738 6.24733 8.20868 6.00005 8.00004 6.00005C6.15909 6.00005 4.66671 7.49243 4.66671 9.33338C4.66671 11.1743 6.15909 12.6667 8.00004 12.6667C9.84099 12.6667 11.3334 11.1743 11.3334 9.33338Z" fill="black"/>
<path fill-rule="evenodd" clip-rule="evenodd" d="M1.53534 7.97153C2.72125 4.46114 6.29114 2.43029 9.77892 3.41466C12.0447 4.05413 13.7355 5.8157 14.4647 7.97128C14.5761 8.30073 14.4158 8.67197 14.0887 8.79474C13.757 8.91923 13.4019 8.7336 13.2893 8.4007C12.6881 6.6235 11.3 5.1854 9.4522 4.66389C6.61343 3.8627 3.6869 5.51131 2.71086 8.40045C2.59839 8.73339 2.24341 8.91918 1.91165 8.79483C1.58446 8.6722 1.42403 8.30102 1.53534 7.97153Z" fill="black"/>
</svg>
