<svg width="13" height="10" viewBox="0 0 13 10" fill="none" xmlns="http://www.w3.org/2000/svg">
<path d="M9.83322 6.16688C9.83322 5.95825 9.58592 5.85954 9.39962 5.95353C9.12922 6.09001 8.82352 6.16688 8.49982 6.16688C7.39529 6.16688 6.49986 5.27145 6.49986 4.16688C6.49986 3.84324 6.57673 3.53756 6.71321 3.2671C6.8072 3.08083 6.7085 2.83355 6.49986 2.83355C4.65891 2.83355 3.16653 4.32593 3.16653 6.16688C3.16653 8.0078 4.65891 9.5002 6.49986 9.5002C8.34081 9.5002 9.83322 8.0078 9.83322 6.16688Z" fill="white"/>
<path fill-rule="evenodd" clip-rule="evenodd" d="M0.0351562 4.80503C1.22107 1.29464 4.79096 -0.736213 8.27874 0.248157C10.5445 0.887627 12.2353 2.6492 12.9645 4.80478C13.0759 5.13423 12.9156 5.50547 12.5885 5.62824C12.2568 5.75273 11.9017 5.5671 11.7891 5.2342C11.1879 3.457 9.79982 2.0189 7.95202 1.49739C5.11325 0.696197 2.18672 2.34481 1.21068 5.23395C1.09821 5.56689 0.743226 5.75268 0.411466 5.62833C0.0842761 5.5057 -0.0761538 5.13452 0.0351562 4.80503Z" fill="white"/>
</svg>
